<svg fill="#000000" xmlns="http://www.w3.org/2000/svg"  viewBox="0 0 100 100" width="200px" height="200px"><path d="M 79 15 C 78.067508 15 77.117831 15.07598 76.222656 15.185547 C 73.364423 15.536577 70.724208 16.86173 68.697266 18.888672 L 54.673828 32.912109 L 21.201172 26.021484 A 1.0001 1.0001 0 0 0 20.292969 26.292969 L 16.292969 30.292969 A 1.0001 1.0001 0 0 0 16.464844 31.84375 L 41.164062 47.498047 C 37.339095 51.674137 31.142986 60.114879 30.5625 60.914062 L 19.164062 59.013672 A 1.0001 1.0001 0 0 0 18.292969 59.292969 L 15.292969 62.292969 A 1.0001 1.0001 0 0 0 15.476562 63.851562 C 15.476562 63.851562 20.642516 67.031596 24.476562 69.390625 A 1.000405 1.000405 0 1 0 25.523438 67.685547 C 22.148905 65.60925 18.609157 63.432539 17.601562 62.8125 L 19.34375 61.070312 L 30.835938 62.986328 A 1.0001 1.0001 0 0 0 31.808594 62.587891 C 31.808594 62.587891 39.889105 51.520779 43.367188 47.955078 A 1.0001 1.0001 0 0 0 43.382812 47.9375 L 43.384766 47.9375 L 55.707031 34.707031 L 55.732422 34.681641 L 70.111328 20.302734 C 71.831937 18.582126 74.063792 17.467196 76.464844 17.171875 C 77.301669 17.069446 78.178492 17 79 17 C 80.896 17 81.947559 17.361622 82.292969 17.707031 C 82.63688 18.050942 83 19.104333 83 21 C 83 21.821508 82.93057 22.697202 82.828125 23.535156 C 82.533172 25.935869 81.418323 28.167614 79.697266 29.888672 L 65.292969 44.292969 L 52.0625 56.615234 A 1.0001 1.0001 0 0 0 52.044922 56.632812 C 48.479221 60.110895 37.412109 68.191406 37.412109 68.191406 A 1.0001 1.0001 0 0 0 37.013672 69.164062 L 38.929688 80.65625 L 37.1875 82.398438 L 32.314453 74.476562 A 1.000405 1.000405 0 1 0 30.609375 75.523438 L 36.148438 84.523438 A 1.0001 1.0001 0 0 0 37.707031 84.707031 L 40.707031 81.707031 A 1.0001 1.0001 0 0 0 40.986328 80.835938 L 39.085938 69.4375 C 39.885121 68.857014 48.325863 62.660905 52.501953 58.835938 L 68.15625 83.535156 A 1.0001 1.0001 0 0 0 69.707031 83.707031 L 73.707031 79.707031 A 1.0001 1.0001 0 0 0 73.978516 78.798828 L 67.087891 45.326172 L 81.111328 31.302734 C 83.13827 29.275792 84.463406 26.636584 84.814453 23.779297 C 84.924004 22.883251 85 21.932492 85 21 C 85 18.895667 84.73712 17.323058 83.707031 16.292969 C 82.676441 15.262378 81.104 15 79 15 z M 74.443359 20.023438 A 0.50038133 0.50038133 0 0 0 74.455078 21.023438 C 76.854697 21.23993 78.76007 23.145303 78.976562 25.544922 A 0.5000688 0.5000688 0 1 0 79.972656 25.455078 C 79.713147 22.578693 77.421303 20.28685 74.544922 20.027344 A 0.50005 0.50005 0 0 0 74.494141 20.023438 A 0.50038133 0.50038133 0 0 0 74.443359 20.023438 z M 21.949219 28.216797 L 54.203125 34.855469 L 46.119141 43.533203 L 33.767578 35.707031 A 0.50005 0.50005 0 0 0 33.484375 35.625 A 0.50005 0.50005 0 0 0 33.232422 36.550781 L 45.425781 44.277344 L 43.332031 46.525391 A 1.0001 1.0001 0 0 0 43.1875 46.412109 L 18.589844 30.824219 L 20.763672 28.650391 L 23.232422 30.214844 A 0.50040122 0.50040122 0 1 0 23.767578 29.369141 L 21.949219 28.216797 z M 26.484375 31.189453 A 0.50005 0.50005 0 0 0 26.232422 32.115234 L 29.232422 34.015625 A 0.50005 0.50005 0 1 0 29.767578 33.171875 L 26.767578 31.271484 A 0.50005 0.50005 0 0 0 26.484375 31.189453 z M 65.144531 45.796875 L 71.785156 78.052734 L 68.921875 73.537109 A 0.50005 0.50005 0 0 0 68.457031 73.298828 A 0.50005 0.50005 0 0 0 68.078125 74.072266 L 71.349609 79.236328 L 69.175781 81.410156 L 53.587891 56.8125 A 1.0001 1.0001 0 0 0 53.474609 56.667969 L 55.722656 54.574219 L 65.078125 69.337891 A 0.50005 0.50005 0 1 0 65.921875 68.802734 L 56.466797 53.880859 L 65.144531 45.796875 z M 36.980469 61.990234 A 1.0001 1.0001 0 0 0 36.292969 62.292969 L 25.292969 73.292969 A 1.0001 1.0001 0 1 0 26.707031 74.707031 L 37.707031 63.707031 A 1.0001 1.0001 0 0 0 36.980469 61.990234 z"/></svg>