<svg fill="#000000" xmlns="http://www.w3.org/2000/svg"  viewBox="0 0 100 100" width="200px" height="200px"><path d="M 49.515625 15 C 38.847625 15 30.062703 23.187422 29.095703 33.607422 C 29.081703 33.639422 29.056875 33.662312 29.046875 33.695312 L 22.882812 52.960938 C 22.351813 54.619937 22.635109 56.378156 23.662109 57.785156 C 24.690109 59.193156 26.277531 60 28.019531 60 L 29 60 L 29 67 L 28.990234 67 C 25.472234 67 22.562125 69.614 22.078125 73 L 22 73 C 19.794 73 18 74.794 18 77 L 18 81 C 18 83.206 19.794 85 22 85 L 78 85 C 80.206 85 82 83.206 82 81 L 82 77 C 82 74.794 80.206 73 78 73 L 77.921875 73 C 77.437875 69.614 74.525813 67 71.007812 67 L 71 67 L 71 60 L 71.980469 60 C 73.722469 60 75.310891 59.192156 76.337891 57.785156 C 77.364891 56.378156 77.648188 54.620891 77.117188 52.962891 L 70.953125 33.695312 C 70.942125 33.661313 70.917297 33.639422 70.904297 33.607422 C 69.936297 23.187422 61.153375 15 50.484375 15 L 49.515625 15 z M 49.515625 17 L 50.484375 17 C 60.693375 17 69 25.305625 69 35.515625 L 69 42.113281 C 65.645 34.969281 58.401 30 50 30 C 44.911 30 40.002734 31.842453 36.177734 35.189453 C 35.969734 35.371453 35.948859 35.688484 36.130859 35.896484 C 36.313859 36.105484 36.627938 36.125359 36.835938 35.943359 C 39.960938 33.208359 43.846266 31.537234 47.947266 31.115234 L 47.947266 33 L 47.5 33 C 47.224 33 47 33.224 47 33.5 L 47 36.5 C 47 36.776 47.224 37 47.5 37 L 47.947266 37 L 47.947266 37.099609 C 47.901266 37.141609 47.859078 37.191953 47.830078 37.251953 C 46.701078 39.564953 45.190219 41.262156 43.574219 42.035156 C 42.011219 42.783156 41 44.40125 41 46.15625 L 41 59.117188 C 41 60.577188 40.728406 61.996938 40.191406 63.335938 C 40.088406 63.591938 40.21175 63.883328 40.46875 63.986328 C 40.52975 64.011328 40.592297 64.021484 40.654297 64.021484 C 40.852297 64.021484 41.041141 63.902031 41.119141 63.707031 C 41.704141 62.249031 42 60.705187 42 59.117188 L 42 46.15625 C 42 44.78425 42.787859 43.521453 44.005859 42.939453 C 45.464859 42.241453 46.829266 40.89475 47.947266 39.09375 L 47.947266 42.5 C 47.947266 42.776 48.171266 43 48.447266 43 L 51.447266 43 C 51.723266 43 51.947266 42.776 51.947266 42.5 L 51.947266 39.035156 C 53.067266 40.874156 54.438406 42.237078 55.941406 42.955078 C 57.179406 43.547078 57.947266 44.780828 57.947266 46.173828 L 57.947266 47.234375 C 57.947266 47.510375 58.171266 47.734375 58.447266 47.734375 C 58.723266 47.734375 58.947266 47.510375 58.947266 47.234375 L 58.947266 46.173828 C 58.947266 44.419828 57.935094 42.800734 56.371094 42.052734 C 54.692094 41.250734 53.126094 39.425 51.996094 37 L 52.5 37 C 52.776 37 53 36.776 53 36.5 L 53 33.5 C 53 33.224 52.776 33 52.5 33 L 51.947266 33 L 51.947266 31.099609 C 59.948266 31.876609 66.574 37.388062 69 44.789062 L 69 67 L 61.875 67 L 60.708984 65.195312 C 59.556984 63.413313 58.947266 61.317766 58.947266 59.134766 L 58.947266 55.0625 C 58.947266 54.7865 58.723266 54.5625 58.447266 54.5625 C 58.171266 54.5625 57.947266 54.7865 57.947266 55.0625 L 57.947266 59.134766 C 57.947266 61.510766 58.612141 63.794281 59.869141 65.738281 L 60.683594 67 L 39.251953 67 L 40.078125 65.722656 C 40.228125 65.490656 40.160688 65.18025 39.929688 65.03125 C 39.698687 64.88225 39.387281 64.948687 39.238281 65.179688 L 38.060547 67 L 31 67 L 31 44.802734 C 31.892 42.062734 33.358234 39.521187 35.365234 37.367188 C 35.553234 37.165188 35.541844 36.848156 35.339844 36.660156 C 35.138844 36.472156 34.821812 36.483547 34.632812 36.685547 C 33.125813 38.302547 31.917047 40.131844 30.998047 42.089844 L 30.998047 35.515625 C 30.999047 25.306625 39.305625 17 49.515625 17 z M 50 31 C 50.32 31 50.631266 31.033828 50.947266 31.048828 L 50.947266 33 L 48.947266 33 L 48.947266 31.048828 C 49.298266 31.029828 49.647 31 50 31 z M 48 34 L 52 34 L 52 36 L 48 36 L 48 34 z M 48.947266 37 L 50.900391 37 C 50.915391 37.035 50.931266 37.068516 50.947266 37.103516 L 50.947266 42 L 48.947266 42 L 48.947266 37 z M 29 40.40625 L 29 58 L 28.019531 58 C 26.923531 58 25.924344 57.492422 25.277344 56.607422 C 24.631344 55.721422 24.453109 54.614313 24.787109 53.570312 L 29 40.40625 z M 71 40.40625 L 75.212891 53.570312 C 75.546891 54.615313 75.368656 55.721422 74.722656 56.607422 C 74.075656 57.492422 73.076469 58 71.980469 58 L 71 58 L 71 40.40625 z M 58.447266 49.734375 C 58.171266 49.734375 57.947266 49.958375 57.947266 50.234375 L 57.947266 52.0625 C 57.947266 52.3385 58.171266 52.5625 58.447266 52.5625 C 58.723266 52.5625 58.947266 52.3385 58.947266 52.0625 L 58.947266 50.234375 C 58.947266 49.958375 58.723266 49.734375 58.447266 49.734375 z M 28.990234 69 L 30 69 L 37 69 L 37 71 L 36.5 71 C 36.224 71 36 71.224 36 71.5 L 36 76.5 C 36 76.776 36.224 77 36.5 77 L 37 77 L 37 83 L 33.009766 83 C 28.042766 83 24 78.957234 24 73.990234 C 24 71.238234 26.238234 69 28.990234 69 z M 38 69 L 40 69 L 40 71 L 38 71 L 38 69 z M 41 69 L 59 69 L 59 71 L 58.5 71 C 58.224 71 58 71.224 58 71.5 L 58 76.5 C 58 76.776 58.224 77 58.5 77 L 59 77 L 59 83 L 41 83 L 41 77 L 41.5 77 C 41.776 77 42 76.776 42 76.5 L 42 71.5 C 42 71.224 41.776 71 41.5 71 L 41 71 L 41 69 z M 60 69 L 62 69 L 62 71 L 60 71 L 60 69 z M 63 69 L 70 69 L 71.009766 69 C 73.761766 69 76 71.238234 76 73.990234 C 76 78.957234 71.957234 83 66.990234 83 L 63 83 L 63 77 L 63.5 77 C 63.776 77 64 76.776 64 76.5 L 64 71.5 C 64 71.224 63.776 71 63.5 71 L 63 71 L 63 69 z M 29.482422 71 C 27.596422 71 26.0625 72.431406 26.0625 74.191406 C 26.0625 75.385406 26.400969 76.560844 27.042969 77.589844 C 27.137969 77.741844 27.30175 77.824219 27.46875 77.824219 C 27.55875 77.824219 27.650422 77.800047 27.732422 77.748047 C 27.966422 77.602047 28.038578 77.294547 27.892578 77.060547 C 27.349578 76.189547 27.0625 75.197406 27.0625 74.191406 C 27.0625 72.983406 28.147422 71.998047 29.482422 71.998047 L 33.126953 71.998047 C 33.402953 71.998047 33.626953 71.774047 33.626953 71.498047 C 33.626953 71.222047 33.403953 71 33.126953 71 L 29.482422 71 z M 44.46875 71 C 44.19275 71 43.96875 71.224 43.96875 71.5 C 43.96875 71.776 44.19275 72 44.46875 72 L 51.59375 72 C 51.86975 72 52.09375 71.776 52.09375 71.5 C 52.09375 71.224 51.86975 71 51.59375 71 L 44.46875 71 z M 54.5 71 C 54.224 71 54 71.224 54 71.5 C 54 71.776 54.224 72 54.5 72 L 55.5 72 C 55.776 72 56 71.776 56 71.5 C 56 71.224 55.776 71 55.5 71 L 54.5 71 z M 65.935547 71.001953 C 65.659547 71.001953 65.435547 71.225953 65.435547 71.501953 C 65.435547 71.777953 65.659547 72.001953 65.935547 72.001953 L 70.515625 72.001953 C 71.851625 72.000953 72.9375 72.982406 72.9375 74.191406 C 72.9375 75.509406 72.465312 76.755062 71.570312 77.789062 C 71.389313 77.998063 71.412094 78.313141 71.621094 78.494141 C 71.716094 78.576141 71.831266 78.617187 71.947266 78.617188 C 72.087266 78.617188 72.227172 78.557359 72.326172 78.443359 C 73.365172 77.241359 73.9375 75.733359 73.9375 74.193359 C 73.9375 72.433359 72.401625 71.001953 70.515625 71.001953 L 65.935547 71.001953 z M 37 72 L 41 72 L 41 76 L 37 76 L 37 72 z M 59 72 L 63 72 L 63 76 L 59 76 L 59 72 z M 22 75 L 22.050781 75 C 22.352781 78.306 24.122172 81.189 26.701172 83 L 22 83 C 20.897 83 20 82.103 20 81 L 20 77 C 20 75.897 20.897 75 22 75 z M 77.949219 75 L 78 75 C 79.103 75 80 75.897 80 77 L 80 81 C 80 82.103 79.103 83 78 83 L 73.298828 83 C 75.877828 81.189 77.647219 78.306 77.949219 75 z M 38 77 L 40 77 L 40 83 L 38 83 L 38 77 z M 60 77 L 62 77 L 62 83 L 60 83 L 60 77 z"/></svg>