<svg fill="#000000" xmlns="http://www.w3.org/2000/svg"  viewBox="0 0 100 100" width="200px" height="200px"><path d="M 50 15 C 38.379044 15 28.079498 20.705688 21.710938 29.449219 C 21.574679 29.408504 20.37804 29.049575 20.375 29.048828 C 19.848978 28.919804 19.306769 29.03724 18.775391 29.230469 C 18.139993 29.028624 17.934862 29 17.875 29 C 16.751 29 14.647406 30.309156 14.191406 30.910156 C 14.158406 30.955156 14.129516 31.002688 14.103516 31.054688 C 13.857516 31.548687 14.060688 32.150484 14.554688 32.396484 L 18.669922 34.443359 C 16.33049 39.134729 15 44.411987 15 50 C 15 69.299 30.701 85 50 85 C 67.957081 85 82.785975 71.40049 84.761719 53.962891 C 84.790429 53.964451 85.110088 54 85.125 54 C 85.721 54 86.246438 53.934016 86.773438 53.791016 C 87.158438 53.687016 89.067266 52.872937 89.447266 52.710938 C 89.654266 52.621938 89.775141 52.404641 89.744141 52.181641 C 89.714141 51.958641 89.539406 51.783906 89.316406 51.753906 L 89.201172 51.738281 C 89.526004 51.57246 89.794037 51.393007 89.935547 51.060547 C 90.018087 50.866637 90.017781 50.581863 89.894531 50.376953 C 89.77128 50.172043 89.588009 50.062307 89.400391 49.990234 A 0.50005 0.50005 0 0 0 89.392578 49.986328 C 89.279379 49.945228 89.241158 49.940925 89.068359 49.890625 C 88.89556 49.840325 88.652478 49.769388 88.347656 49.681641 C 87.738013 49.506146 86.88234 49.259847 85.857422 48.964844 C 85.612872 48.894455 85.219439 48.779372 84.955078 48.703125 C 84.267335 30.005398 68.862944 15 50 15 z M 50 17 C 67.562036 17 81.948898 30.794473 82.931641 48.115234 C 81.57281 47.721437 80.340167 47.366493 78.837891 46.925781 C 79.420507 45.95515 79.635106 44.707463 79.212891 43.400391 A 0.50005 0.50005 0 0 0 79.210938 43.394531 C 78.658308 41.752079 77.383358 40.618912 76 40.509766 L 76 39.998047 C 76 38.899515 75.098531 37.998047 74 37.998047 L 69.189453 37.998047 C 69.149183 37.985317 69.085891 37.965706 69.009766 37.941406 C 68.857516 37.892796 68.646911 37.826822 68.394531 37.761719 C 67.889771 37.631512 67.22051 37.5 66.5 37.5 C 65.184778 37.5 64.047048 38.222167 63.636719 38.445312 L 63.636719 38.443359 C 62.683052 38.959645 61.171567 39.844739 59.519531 40.728516 C 59.470661 40.713156 59.430571 40.701631 59.365234 40.681641 C 59.141454 40.613161 58.820174 40.517022 58.414062 40.396484 C 57.725366 40.192072 56.688392 39.887099 55.582031 39.560547 C 56.306618 38.281385 56.546796 36.620616 55.962891 34.908203 L 55.962891 34.90625 C 55.503257 33.536621 54.68153 32.425584 53.685547 31.726562 C 52.689144 31.027247 51.48914 30.742311 50.369141 31.113281 A 0.50005 0.50005 0 0 0 50.367188 31.113281 C 48.80932 31.632938 47.989112 33.264903 47.900391 35.085938 C 47.292555 35.376849 46.688624 35.674918 46.195312 35.933594 C 45.751391 36.166372 45.47009 36.334623 45.21875 36.496094 C 44.877233 36.393652 28.729958 31.551795 23.744141 30.058594 C 29.776336 22.134044 39.294933 17 50 17 z M 51.292969 20.019531 A 0.50005 0.50005 0 0 0 50.8125 20.488281 L 50.433594 25.486328 A 0.50005 0.50005 0 0 0 50.914062 26.023438 C 52.306077 26.075427 53.666778 26.238799 54.984375 26.517578 A 0.50008884 0.50008884 0 0 0 55.191406 25.539062 C 53.98237 25.283254 52.730696 25.158271 51.466797 25.085938 L 51.810547 20.564453 A 0.50005 0.50005 0 0 0 51.292969 20.019531 z M 44.832031 20.445312 A 0.50005 0.50005 0 0 0 44.335938 21.039062 L 45.205078 25.964844 A 0.50005 0.50005 0 1 0 46.189453 25.791016 L 45.320312 20.865234 A 0.50005 0.50005 0 0 0 44.832031 20.445312 z M 60.894531 22.082031 A 0.50005 0.50005 0 0 0 60.449219 22.376953 L 59.457031 24.585938 A 0.50005 0.50005 0 0 0 59.388672 24.732422 A 0.50005 0.50005 0 0 0 59.386719 24.738281 L 58.390625 26.955078 A 0.50005 0.50005 0 0 0 58.666016 27.626953 C 60.002235 28.145179 61.279825 28.776652 62.490234 29.511719 A 0.50005 0.50005 0 1 0 63.007812 28.658203 C 61.897727 27.983992 60.713678 27.426297 59.5 26.925781 L 60.125 25.535156 C 61.131931 25.952578 62.121418 26.404157 63.060547 26.9375 A 0.50074447 0.50074447 0 1 0 63.554688 26.066406 C 62.588597 25.517752 61.570372 25.05549 60.535156 24.625 L 61.148438 23.257812 C 62.396206 23.77964 63.616002 24.359491 64.769531 25.044922 A 0.50005 0.50005 0 1 0 65.279297 24.185547 C 63.947064 23.39393 62.548684 22.697465 61.089844 22.117188 A 0.50005 0.50005 0 0 0 60.894531 22.082031 z M 38.548828 22.304688 A 0.50005 0.50005 0 0 0 38.353516 22.34375 C 38.091007 22.454065 37.830562 22.569027 37.574219 22.685547 A 0.50005 0.50005 0 0 0 37.556641 22.693359 C 37.556586 22.693387 37.291055 23.03692 37.291016 23.037109 C 37.290976 23.037299 37.28215 23.092779 37.28125 23.105469 C 37.27945 23.130859 37.281192 23.140367 37.28125 23.148438 C 37.281366 23.164568 37.280831 23.171038 37.28125 23.179688 C 37.282087 23.196997 37.283656 23.214768 37.285156 23.236328 C 37.288156 23.279438 37.292858 23.337749 37.298828 23.412109 C 37.310788 23.56083 37.328009 23.771761 37.349609 24.023438 C 37.392809 24.526788 37.452449 25.195947 37.511719 25.865234 C 37.601709 26.881412 37.654751 27.466242 37.693359 27.896484 L 33.933594 25.054688 A 0.50005 0.50005 0 0 0 33.353516 25.037109 C 33.11498 25.196472 32.879334 25.359919 32.644531 25.527344 A 0.50005 0.50005 0 0 0 32.642578 25.527344 C 32.642523 25.527383 32.439427 26.009597 32.439453 26.009766 C 32.439479 26.009934 32.462781 26.103216 32.462891 26.103516 C 32.463102 26.104109 32.480005 26.145177 32.484375 26.154297 C 32.493075 26.172547 32.497493 26.17936 32.501953 26.1875 C 32.510853 26.20379 32.518887 26.218468 32.529297 26.236328 C 32.550127 26.272038 32.577331 26.319158 32.613281 26.378906 C 32.685191 26.49841 32.789234 26.666123 32.912109 26.867188 C 33.15786 27.269316 33.485679 27.804023 33.814453 28.337891 C 34.472002 29.405626 35.130859 30.470703 35.130859 30.470703 A 0.50005 0.50005 0 1 0 35.980469 29.945312 C 35.980469 29.945312 35.322966 28.879264 34.666016 27.8125 C 34.33754 27.279118 34.008233 26.745886 33.763672 26.345703 C 33.696472 26.235744 33.656317 26.166984 33.603516 26.080078 C 33.608616 26.076578 33.614071 26.073813 33.619141 26.070312 L 37.607422 29.083984 A 0.50005 0.50005 0 0 0 38.152344 29.123047 L 38.492188 28.931641 A 0.50005 0.50005 0 0 0 38.746094 28.451172 C 38.746094 28.451172 38.626273 27.115019 38.507812 25.777344 C 38.448583 25.108506 38.388751 24.439055 38.345703 23.9375 C 38.328623 23.738471 38.315828 23.592411 38.304688 23.457031 C 38.307887 23.455631 38.311253 23.454525 38.314453 23.453125 L 40.363281 27.505859 A 0.50006269 0.50006269 0 1 0 41.255859 27.054688 L 38.994141 22.578125 A 0.50005 0.50005 0 0 0 38.548828 22.304688 z M 69.324219 27.546875 C 68.90024 27.546875 68.470755 27.722547 68.152344 28.044922 A 0.50005 0.50005 0 0 0 68.125 28.078125 C 68.03754 28.183273 67.753906 28.541129 67.753906 29.044922 C 67.753906 29.621264 68.046426 30.168037 68.568359 30.882812 A 0.50005 0.50005 0 0 0 68.570312 30.882812 C 68.779584 31.168816 69.152492 31.681009 69.412109 32.033203 C 69.800224 32.559665 69.947266 32.945402 69.947266 33.193359 C 69.947266 33.383493 69.904716 33.470314 69.785156 33.576172 C 69.657789 33.687394 69.524354 33.738281 69.359375 33.738281 C 69.019991 33.738281 68.421414 33.466335 67.855469 32.900391 C 67.16327 32.208192 66.886719 31.614406 66.886719 31.035156 C 66.886719 30.929617 66.898636 30.831491 66.916016 30.738281 A 0.50067468 0.50067468 0 1 0 65.931641 30.554688 C 65.905021 30.697478 65.886719 30.858695 65.886719 31.035156 C 65.886719 31.941907 66.340683 32.80162 67.146484 33.607422 C 67.83254 34.293477 68.588759 34.738281 69.359375 34.738281 C 69.758396 34.738281 70.144726 34.590856 70.443359 34.330078 A 0.50005 0.50005 0 0 0 70.445312 34.328125 C 70.764556 34.046611 70.947266 33.624402 70.947266 33.193359 C 70.947266 32.603317 70.664682 32.046991 70.216797 31.439453 C 69.960414 31.091647 69.587683 30.580966 69.376953 30.292969 C 68.902886 29.643744 68.753906 29.23858 68.753906 29.044922 C 68.753906 28.87756 68.804276 28.832978 68.882812 28.740234 C 69.035629 28.590422 69.135721 28.546875 69.324219 28.546875 C 69.768488 28.546875 70.468275 29.098148 70.712891 29.351562 A 0.50005 0.50005 0 0 0 70.71875 29.357422 C 71.41872 30.057392 71.691406 30.635846 71.691406 31.136719 C 71.691406 31.215979 71.685202 31.293559 71.669922 31.373047 A 0.50005 0.50005 0 1 0 72.650391 31.5625 C 72.677081 31.423988 72.691406 31.281457 72.691406 31.136719 C 72.691406 30.27789 72.231705 29.458226 71.431641 28.65625 L 71.427734 28.652344 C 71.114832 28.328154 70.365162 27.546875 69.324219 27.546875 z M 19.869141 30.015625 C 19.983412 30.00405 20.075529 30.004523 20.136719 30.019531 C 20.193719 30.033531 45.132812 37.515625 45.132812 37.515625 A 0.50005 0.50005 0 0 0 45.572266 37.439453 C 45.692866 37.351363 46.124123 37.101392 46.660156 36.820312 C 47.196189 36.539234 47.857459 36.208942 48.529297 35.890625 A 0.50005 0.50005 0 0 0 48.814453 35.431641 C 48.788833 33.760903 49.529163 32.447583 50.683594 32.0625 C 51.459594 31.80547 52.312278 31.98549 53.109375 32.544922 C 53.906472 33.104357 54.619146 34.044075 55.015625 35.226562 A 0.50005 0.50005 0 0 0 55.015625 35.230469 C 55.596257 36.931684 55.319552 38.618021 54.544922 39.574219 A 0.50005 0.50005 0 0 0 54.791016 40.369141 C 56.167321 40.775731 57.318877 41.113091 58.128906 41.353516 C 58.533921 41.473728 58.854265 41.570009 59.072266 41.636719 C 59.181266 41.670069 59.265175 41.697504 59.318359 41.714844 C 59.340819 41.722144 59.354801 41.725536 59.363281 41.728516 C 59.364881 41.729065 59.370194 41.732122 59.371094 41.732422 A 0.50005 0.50005 0 0 0 59.802734 41.714844 C 61.569983 40.777346 63.151978 39.844638 64.113281 39.324219 C 64.321081 39.211235 64.650454 39.038947 65 38.882812 L 65 39.625 C 65 39.788 65.079891 39.939203 65.212891 40.033203 C 65.297891 40.093203 65.399 40.125 65.5 40.125 C 65.557 40.125 65.612969 40.114703 65.667969 40.095703 C 67.115969 39.578703 68.777734 39.026094 69.052734 38.996094 C 69.05704 38.99564 69.060188 38.992748 69.064453 38.992188 C 69.075824 38.993422 69.066256 38.994837 69.080078 38.996094 A 0.50005 0.50005 0 0 0 69.125 38.998047 L 74 38.998047 C 74.557469 38.998047 75 39.440578 75 39.998047 L 75 40.957031 A 0.50005 0.50005 0 0 0 75.572266 41.453125 C 76.514212 41.315912 77.748206 42.188379 78.261719 43.710938 C 78.683542 45.021158 78.418461 46.286458 77.802734 46.890625 A 0.50005 0.50005 0 0 0 78.011719 47.728516 C 80.801711 48.548954 83.531367 49.335537 85.582031 49.925781 C 86.607363 50.220903 87.463347 50.467292 88.072266 50.642578 C 88.361071 50.725718 88.582989 50.790716 88.751953 50.839844 C 88.693753 50.881714 88.720273 50.876502 88.628906 50.919922 C 88.628906 50.919922 88.626953 50.919922 88.626953 50.919922 C 88.626953 50.919922 88.625 50.921875 88.625 50.921875 C 88.65081 50.909975 88.59405 50.933974 88.53125 50.958984 C 88.46574 50.985074 88.374725 51.020544 88.267578 51.0625 C 88.053283 51.14641 87.771188 51.256061 87.480469 51.367188 C 86.89903 51.589439 86.225486 51.831353 86.128906 51.857422 A 0.50005 0.50005 0 0 0 86.128906 51.859375 C 85.676436 51.982268 85.452379 51.998047 85.125 51.998047 C 85.15499 51.998047 85.017462 51.993046 84.849609 51.978516 C 84.681757 51.963946 84.450351 51.941653 84.166016 51.914062 C 83.597344 51.858872 82.816297 51.780414 81.896484 51.685547 C 80.056859 51.495813 77.660171 51.243329 75.283203 50.990234 C 70.529268 50.484045 65.853516 49.976563 65.853516 49.976562 A 0.50005 0.50005 0 0 0 65.603516 50.013672 C 59.69726 52.531957 49.356857 57 39 57 C 37.031958 57 36.072347 56.783935 35.726562 56.599609 C 35.553672 56.507449 35.536627 56.45819 35.519531 56.414062 C 35.502431 56.369932 35.495783 56.289308 35.501953 56.144531 A 0.50005 0.50005 0 0 0 35.501953 56.142578 C 35.499653 56.199608 35.510554 56.073078 35.527344 55.957031 C 35.544114 55.840982 35.566334 55.692341 35.589844 55.537109 C 35.636854 55.226646 35.686744 54.908663 35.705078 54.728516 A 0.50005 0.50005 0 0 0 35.333984 54.195312 C 33.491864 53.710749 30.328998 52.63731 30.076172 52.552734 C 30.22697 52.408721 30.386493 52.272319 30.480469 52.224609 C 30.708155 52.11794 30.973375 51.978795 31.462891 52.001953 A 0.50005 0.50005 0 0 0 31.464844 52.001953 C 31.506564 52.003853 32.094158 52.082473 32.8125 52.167969 C 33.530842 52.253469 34.447923 52.346536 35.402344 52.382812 A 0.50005 0.50005 0 0 0 35.919922 51.919922 C 35.984192 51.031646 36.060465 50.11821 36.132812 49.398438 C 36.168993 49.03855 36.203822 48.72545 36.236328 48.494141 C 36.268838 48.262831 36.331295 48.058794 36.296875 48.140625 A 0.50005 0.50005 0 0 0 36.304688 48.119141 C 36.333888 48.040021 36.61639 47.668475 36.939453 47.410156 C 37.180014 47.217806 37.359248 47.159373 37.498047 47.103516 C 37.664543 47.3481 38.025988 47.880016 38.558594 48.662109 C 38.8803 49.134512 39.20227 49.609299 39.447266 49.96875 C 39.569763 50.148476 39.67434 50.298285 39.748047 50.40625 C 39.821757 50.514215 39.825827 50.526867 39.876953 50.597656 C 40.019032 50.798452 40.177567 51.04965 40.396484 51.28125 C 40.616497 51.514007 40.943238 51.748047 41.361328 51.748047 C 41.438938 51.748047 41.598008 51.747046 41.763672 51.697266 C 41.929336 51.647496 42.106139 51.56944 42.421875 51.417969 C 42.570112 51.346769 42.7397 51.24105 43.064453 51.048828 C 43.389206 50.856606 43.819208 50.600725 44.310547 50.308594 C 45.293226 49.724332 46.518872 48.998767 47.621094 48.373047 L 47.617188 48.367188 C 47.793697 48.272689 47.947465 48.130703 48.042969 47.9375 C 48.290969 47.4435 48.08775 46.843656 47.59375 46.597656 L 16.964844 31.361328 C 16.981375 31.341464 16.996386 31.320125 17.015625 31.302734 C 17.178428 31.158594 17.823359 30.732618 18.486328 30.427734 C 18.98482 30.19849 19.526328 30.050351 19.869141 30.015625 z M 16.523438 31.138672 L 16.541016 31.150391 L 16.521484 31.140625 C 16.521484 31.140625 16.523438 31.138672 16.523438 31.138672 z M 52.826172 35 C 52.472172 35 51.940094 35.049453 51.496094 35.189453 C 51.036094 35.345453 50.871422 35.960969 51.107422 36.667969 C 51.287422 37.157969 51.685484 37.617188 52.146484 37.617188 C 52.208484 37.617188 52.272891 37.608797 52.337891 37.591797 C 52.849891 37.404797 53.994328 36.145234 53.861328 35.490234 C 53.840328 35.385234 53.786031 35.29075 53.707031 35.21875 C 53.587031 35.10975 53.389172 35 52.826172 35 z M 20.460938 35.333984 L 46.113281 48.095703 C 45.312508 48.560373 44.483138 49.042355 43.798828 49.449219 C 43.306667 49.741838 42.876684 49.998863 42.554688 50.189453 C 42.23269 50.380044 41.968997 50.525826 41.990234 50.515625 C 41.68897 50.660154 41.533899 50.723008 41.476562 50.740234 C 41.419222 50.757464 41.464722 50.748047 41.361328 50.748047 C 41.308418 50.748047 41.248285 50.726247 41.123047 50.59375 C 40.997809 50.461257 40.852775 50.243345 40.691406 50.015625 A 0.50005 0.50005 0 0 0 40.6875 50.011719 C 40.72888 50.069009 40.64765 49.951309 40.574219 49.84375 C 40.500789 49.736192 40.397815 49.583915 40.275391 49.404297 C 40.030542 49.045061 39.706434 48.571957 39.384766 48.099609 C 38.741428 47.154915 38.103516 46.216797 38.103516 46.216797 A 0.50005 0.50005 0 0 0 37.689453 45.998047 C 37.139723 45.998047 36.72739 46.298725 36.314453 46.628906 C 35.903463 46.957531 35.542899 47.307924 35.371094 47.767578 C 35.286524 47.975044 35.280814 48.108395 35.246094 48.355469 C 35.210444 48.609159 35.173674 48.929261 35.136719 49.296875 C 35.077419 49.886837 35.021689 50.624504 34.966797 51.34375 C 34.237193 51.30036 33.502244 51.241743 32.931641 51.173828 C 32.227983 51.090078 31.782048 51.014093 31.509766 51.001953 C 30.778119 50.967343 30.247673 51.227395 30.048828 51.320312 A 0.50005 0.50005 0 0 0 30.037109 51.326172 C 29.752437 51.468508 29.496822 51.684552 29.253906 51.943359 A 0.50005 0.50005 0 0 0 29.244141 51.955078 C 29.034969 52.191618 28.944077 52.528414 29.037109 52.839844 C 29.130139 53.151274 29.408285 53.400092 29.738281 53.494141 C 29.885776 53.543471 32.706154 54.48316 34.652344 55.029297 C 34.633134 55.161846 34.623672 55.240735 34.601562 55.386719 C 34.578072 55.541862 34.554709 55.692658 34.537109 55.814453 C 34.519509 55.936248 34.506793 55.983538 34.501953 56.101562 C 34.495153 56.261786 34.482801 56.504142 34.587891 56.775391 C 34.692982 57.046639 34.926001 57.306585 35.255859 57.482422 C 35.915569 57.834104 36.968042 58 39 58 C 48.548148 58 57.882326 54.354021 63.96875 51.785156 L 65.966797 52.001953 C 71.742855 52.626347 79.608601 53.463082 82.773438 53.765625 C 82.579263 55.467019 82.254203 57.128693 81.810547 58.742188 C 79.750645 58.209554 74.268004 57 66.628906 57 C 55.508757 57 45.920332 59.808457 38.28125 63.53125 A 0.50005 0.50005 0 1 0 38.71875 64.429688 C 46.239668 60.76448 55.677055 58 66.628906 58 C 74.143202 58 79.505487 59.178501 81.529297 59.701172 C 77.377248 73.175853 64.820024 83 50 83 C 31.804 83 17 68.196 17 50 C 17 44.731469 18.255363 39.756726 20.460938 35.333984 z M 49.84375 37.091797 C 49.779344 37.096312 49.715297 37.113531 49.654297 37.144531 C 48.232297 37.865531 47.058328 38.248609 46.361328 38.224609 C 46.156328 38.212609 45.966766 38.336391 45.884766 38.525391 C 45.536766 39.332391 44.847906 40.367062 44.128906 41.164062 C 43.979906 41.329062 43.957219 41.573672 44.074219 41.763672 C 44.168219 41.912672 44.33 42 44.5 42 C 44.545 42 44.589766 41.993469 44.634766 41.980469 C 46.833766 41.363469 49.769062 40.165563 51.414062 39.351562 C 51.586062 39.266562 51.695359 39.090438 51.693359 38.898438 C 51.691359 38.706437 51.58025 38.532172 51.40625 38.451172 C 50.95625 38.239172 50.582219 37.862328 50.324219 37.361328 C 50.229719 37.177578 50.036969 37.07825 49.84375 37.091797 z M 22.994141 40.691406 C 22.118713 40.637884 21.297988 41.219102 21.058594 42.089844 A 0.50005 0.50005 0 0 0 21.058594 42.091797 C 20.720352 43.327028 20.461171 44.595705 20.283203 45.890625 A 0.50005 0.50005 0 0 0 20.273438 45.939453 C 20.272337 45.947553 20.268678 45.954821 20.267578 45.962891 A 0.50005 0.50005 0 0 0 20.267578 45.974609 A 0.50005 0.50005 0 0 0 20.753906 46.537109 C 20.754906 46.537302 20.756812 46.536914 20.757812 46.537109 C 20.793443 46.543809 20.832042 46.550607 20.886719 46.560547 C 21.022611 46.585247 21.215946 46.620927 21.447266 46.662109 C 21.909905 46.744479 22.526242 46.852348 23.142578 46.960938 C 23.220708 46.974697 23.221008 46.974581 23.298828 46.988281 A 0.50005 0.50005 0 0 0 23.474609 47.019531 C 24.521853 47.203808 25.607422 47.394531 25.607422 47.394531 A 0.50005 0.50005 0 1 0 25.78125 46.410156 C 25.78125 46.410156 24.843736 46.244381 24.064453 46.107422 C 24.169971 45.401214 24.323797 44.711914 24.484375 44.025391 L 26.837891 43.041016 A 0.50005 0.50005 0 1 0 26.451172 42.119141 L 24.664062 42.867188 C 24.825852 41.934337 24.292541 41.007879 23.371094 40.753906 C 23.245333 40.719331 23.119202 40.699052 22.994141 40.691406 z M 73.447266 41.001953 C 73.339141 41.013328 73.234844 41.060625 73.152344 41.140625 C 72.909344 41.373625 72.657359 41.617359 72.318359 41.818359 C 55.594359 51.752359 39.696797 54.826516 37.466797 54.978516 C 37.200797 54.997516 36.995 55.220328 37 55.486328 C 37.005 55.752328 37.216422 55.969516 37.482422 55.978516 C 37.899422 55.992516 38.315516 55.998047 38.728516 55.998047 C 48.408516 55.998047 56.984234 52.354203 62.740234 49.908203 C 63.430234 49.615203 64.082406 49.339891 64.691406 49.087891 L 65.271484 48.845703 C 69.606484 47.054703 73.187562 44.097344 73.976562 41.652344 C 74.047562 41.434344 73.959625 41.197172 73.765625 41.076172 C 73.667625 41.014672 73.555391 40.990578 73.447266 41.001953 z M 22.753906 41.693359 C 22.867432 41.678019 22.98599 41.685901 23.105469 41.71875 C 23.571042 41.847073 23.847831 42.311474 23.722656 42.765625 C 23.667676 42.965453 23.648166 43.179193 23.597656 43.380859 A 0.50005 0.50005 0 0 0 23.509766 43.820312 C 23.347209 44.517902 23.189852 45.218562 23.082031 45.935547 C 22.553792 45.842407 22.020648 45.748526 21.623047 45.677734 C 21.512068 45.657974 21.446378 45.645206 21.355469 45.628906 C 21.524486 44.519144 21.729931 43.420196 22.021484 42.355469 C 22.122289 41.988819 22.41333 41.739381 22.753906 41.693359 z M 76.333984 43.386719 C 76.002734 43.349594 75.650578 43.414609 75.455078 43.474609 C 74.984078 43.638609 74.775031 44.167422 74.957031 44.732422 C 75.109031 45.203422 75.480953 45.501953 75.876953 45.501953 C 75.953953 45.501953 76.032375 45.488797 76.109375 45.466797 C 76.434375 45.365797 76.821188 44.949094 76.992188 44.621094 C 77.127188 44.365094 77.158844 44.128062 77.089844 43.914062 C 76.976344 43.563563 76.665234 43.423844 76.333984 43.386719 z M 60.328125 43.783203 C 60.295875 43.78275 60.259203 43.791094 60.220703 43.808594 L 59.882812 43.964844 C 59.741813 44.020844 59.630859 44.202422 59.630859 44.357422 L 59.630859 45.34375 C 59.644859 45.49875 59.756484 45.567719 59.896484 45.511719 L 60.234375 45.357422 C 60.375375 45.287422 60.488281 45.117891 60.488281 44.962891 L 60.488281 43.978516 C 60.488281 43.862266 60.424875 43.784562 60.328125 43.783203 z M 58.949219 44.458984 C 58.916922 44.458531 58.880547 44.466875 58.841797 44.484375 L 58.503906 44.652344 C 58.363906 44.708344 58.251953 44.891875 58.251953 45.046875 L 58.251953 46.03125 C 58.251953 46.20025 58.362578 46.284844 58.517578 46.214844 L 58.855469 46.046875 C 58.995469 45.990875 59.109375 45.807672 59.109375 45.638672 L 59.109375 44.652344 C 59.109375 44.536094 59.046109 44.460344 58.949219 44.458984 z M 73.548828 45.134766 C 73.454828 45.142766 73.369828 45.175516 73.298828 45.228516 C 72.860828 45.478516 72.460422 45.667062 72.107422 45.789062 C 72.018422 45.819063 71.938906 45.875219 71.878906 45.949219 C 71.214906 46.775219 70.389828 47.519156 69.423828 48.160156 C 69.419828 48.163156 69.339937 48.219656 69.335938 48.222656 C 69.152937 48.352656 69.078297 48.587828 69.154297 48.798828 C 69.226297 48.997828 69.416 49.128906 69.625 49.128906 C 69.638 49.128906 69.650063 49.128953 69.664062 49.126953 C 70.655062 49.050953 75.002594 47.752047 75.433594 46.998047 C 75.509594 46.865047 75.521844 46.706453 75.464844 46.564453 C 75.407844 46.422453 75.289578 46.314484 75.142578 46.271484 C 74.199578 45.992484 74.087984 45.555969 74.083984 45.542969 C 74.039984 45.286969 73.801828 45.118766 73.548828 45.134766 z M 56.238281 45.824219 C 56.208 45.823766 56.175625 45.832109 56.140625 45.849609 L 55.802734 46.003906 C 55.661734 46.059906 55.548828 46.243437 55.548828 46.398438 L 55.548828 47.382812 C 55.562828 47.565812 55.675406 47.637406 55.816406 47.566406 L 56.140625 47.410156 C 56.281625 47.340156 56.392578 47.172906 56.392578 47.003906 L 56.392578 46.017578 C 56.392578 45.901328 56.329125 45.825578 56.238281 45.824219 z M 54.845703 46.556641 C 54.815422 46.556188 54.781094 46.562578 54.746094 46.580078 L 54.408203 46.75 C 54.268203 46.806 54.15625 46.989531 54.15625 47.144531 L 54.15625 48.128906 C 54.17025 48.269906 54.282828 48.339203 54.423828 48.283203 L 54.746094 48.128906 C 54.886094 48.072906 55 47.889375 55 47.734375 L 55 46.75 C 55 46.63375 54.936547 46.558 54.845703 46.556641 z M 52.160156 47.892578 C 52.128516 47.892125 52.093844 47.900469 52.058594 47.917969 L 51.720703 48.072266 C 51.579703 48.128266 51.46875 48.311797 51.46875 48.466797 L 51.46875 49.451172 C 51.46875 49.606172 51.580375 49.691094 51.734375 49.621094 L 52.072266 49.466797 C 52.213266 49.410797 52.326172 49.227266 52.326172 49.072266 L 52.326172 48.087891 C 52.326172 47.971641 52.255078 47.893938 52.160156 47.892578 z M 50.767578 48.597656 C 50.735937 48.597203 50.701266 48.603594 50.666016 48.621094 L 50.341797 48.777344 C 50.201797 48.847344 50.089844 49.016875 50.089844 49.171875 L 50.089844 50.15625 C 50.089844 50.31125 50.200797 50.394219 50.341797 50.324219 L 50.679688 50.169922 C 50.819688 50.099922 50.947594 49.930391 50.933594 49.775391 L 50.933594 48.791016 C 50.933594 48.674766 50.8625 48.599016 50.767578 48.597656 z M 48.095703 49 C 48.064328 48.999547 48.031094 49.007891 47.996094 49.025391 L 47.658203 49.193359 C 47.517203 49.249359 47.404297 49.432891 47.404297 49.587891 L 47.404297 50.572266 C 47.404297 50.727266 47.518203 50.812188 47.658203 50.742188 L 47.996094 50.572266 C 48.137094 50.516266 48.248047 50.334688 48.248047 50.179688 L 48.248047 49.193359 C 48.258547 49.077109 48.189828 49.001359 48.095703 49 z M 46.708984 49.703125 C 46.676906 49.702891 46.640313 49.711016 46.601562 49.728516 L 46.263672 49.884766 C 46.123672 49.940766 46.011719 50.122344 46.011719 50.277344 L 46.011719 51.263672 C 46.011719 51.418672 46.122344 51.501641 46.277344 51.431641 L 46.601562 51.263672 C 46.741563 51.207672 46.855469 51.024141 46.855469 50.869141 L 46.855469 49.884766 C 46.865969 49.779016 46.805219 49.703828 46.708984 49.703125 z M 25.583984 51.652344 A 0.50005 0.50005 0 0 0 25.548828 51.654297 L 20.568359 52.095703 A 0.50005 0.50005 0 1 0 20.65625 53.091797 L 25.636719 52.650391 A 0.50005 0.50005 0 0 0 25.583984 51.652344 z M 26.335938 55.912109 A 0.50005 0.50005 0 0 0 25.992188 56.064453 C 25.992188 56.064453 25.388773 56.67818 25.041016 57.03125 A 0.50005 0.50005 0 0 0 24.9375 57.134766 C 24.576763 57.501045 24.476679 57.603568 24.015625 58.072266 C 23.52164 58.57444 23.028671 59.077054 22.658203 59.455078 C 22.472969 59.64409 22.319512 59.802444 22.210938 59.914062 C 22.156647 59.969873 22.112468 60.013162 22.082031 60.044922 C 22.066811 60.060802 22.055602 60.072514 22.044922 60.083984 C 22.039622 60.089684 22.035424 60.096289 22.027344 60.105469 C 22.023344 60.110069 22.019243 60.114366 22.007812 60.128906 C 22.002112 60.136106 21.978626 60.169752 21.978516 60.169922 C 21.978411 60.170086 21.929678 60.609332 21.929688 60.609375 A 0.50005 0.50005 0 0 0 21.931641 60.615234 C 22.032404 60.881167 22.217726 61.332558 22.273438 61.470703 C 22.273473 61.470797 22.523231 61.745993 22.523438 61.746094 C 22.523643 61.746194 22.588729 61.772584 22.605469 61.777344 C 22.638949 61.786844 22.650989 61.789146 22.662109 61.791016 C 22.684339 61.794716 22.694378 61.795675 22.705078 61.796875 C 22.726468 61.799175 22.745901 61.799081 22.769531 61.800781 C 22.816801 61.804281 22.877997 61.809883 22.957031 61.814453 C 23.115099 61.823553 23.337395 61.834496 23.603516 61.847656 C 24.135757 61.873976 24.843747 61.907433 25.550781 61.939453 C 26.199654 61.968833 26.335746 61.973584 26.847656 61.996094 C 26.849956 61.996197 26.851116 61.997847 26.853516 61.998047 A 0.50005 0.50005 0 0 0 27.011719 62.003906 C 27.511926 62.025846 28.376953 62.064453 28.376953 62.064453 A 0.50046139 0.50046139 0 0 0 28.419922 61.064453 C 28.419922 61.064453 27.655503 61.031215 27.298828 61.015625 C 26.759179 59.905648 26.299874 58.751129 25.925781 57.558594 C 26.172438 57.308203 26.705078 56.767578 26.705078 56.767578 A 0.50005 0.50005 0 0 0 26.335938 55.912109 z M 25.160156 58.335938 C 25.462376 59.236159 25.81263 60.112776 26.207031 60.966797 C 25.915623 60.953817 25.901497 60.953293 25.595703 60.939453 C 24.889362 60.907473 24.183775 60.873836 23.654297 60.847656 C 23.420324 60.836086 23.238402 60.826679 23.089844 60.818359 C 23.052394 60.725329 23.025444 60.658112 22.984375 60.554688 C 23.087906 60.448428 23.211445 60.319194 23.373047 60.154297 C 23.742641 59.777164 24.23475 59.275388 24.728516 58.773438 C 24.944038 58.554342 24.954854 58.544502 25.160156 58.335938 z M 33.511719 66.199219 A 0.50005 0.50005 0 0 0 33.242188 66.275391 C 32.18331 66.915149 31.172622 67.564581 30.216797 68.222656 A 0.50005 0.50005 0 1 0 30.783203 69.046875 C 31.721378 68.400951 32.714689 67.761101 33.757812 67.130859 A 0.50005 0.50005 0 0 0 33.511719 66.199219 z M 28.511719 69.566406 A 0.50005 0.50005 0 0 0 28.199219 69.671875 C 27.850133 69.934704 27.517231 70.194511 27.189453 70.453125 A 0.50055662 0.50055662 0 1 0 27.810547 71.238281 C 28.136769 70.980895 28.461867 70.725874 28.800781 70.470703 A 0.50005 0.50005 0 0 0 28.511719 69.566406 z"/></svg>