<svg fill="#000000" xmlns="http://www.w3.org/2000/svg"  viewBox="0 0 100 100" width="200px" height="200px"><path d="M 50 14 C 30.129581 14 14 30.129595 14 50 C 14 69.870405 30.129581 86 50 86 C 69.870419 86 86 69.870405 86 50 C 86 30.129595 69.870419 14 50 14 z M 50 16 C 68.78954 16 84 31.210473 84 50 C 84 68.789527 68.78954 84 50 84 C 31.21046 84 16 68.789527 16 50 C 16 31.210473 31.21046 16 50 16 z M 50 19 C 32.884791 19 19 32.884791 19 50 C 19 55.456216 20.415565 60.580738 22.892578 65.035156 A 0.50005 0.50005 0 0 0 22.916016 65.082031 C 22.945229 65.134377 22.978305 65.184169 23.007812 65.236328 C 23.274284 65.707189 23.553769 66.169861 23.84375 66.625 C 23.915973 66.738397 23.986897 66.852454 24.060547 66.964844 C 24.74979 68.016249 25.500229 69.023075 26.308594 69.980469 C 26.380388 70.065523 26.454655 70.148154 26.527344 70.232422 C 26.872267 70.632178 27.227202 71.022725 27.591797 71.404297 C 27.676751 71.493233 27.759707 71.583953 27.845703 71.671875 C 28.712452 72.557783 29.632609 73.3906 30.599609 74.167969 C 30.718873 74.26387 30.840234 74.357009 30.960938 74.451172 C 31.353424 74.757283 31.752891 75.054488 32.160156 75.341797 C 32.263219 75.414525 32.364766 75.489049 32.46875 75.560547 C 32.976487 75.909558 33.492552 76.245521 34.021484 76.564453 C 34.1076 76.616396 34.196544 76.663717 34.283203 76.714844 C 34.732884 76.980062 35.190445 77.233771 35.654297 77.476562 C 35.802144 77.553968 35.950371 77.630002 36.099609 77.705078 C 36.535944 77.924531 36.97797 78.132885 37.425781 78.332031 C 37.554524 78.389297 37.680887 78.450305 37.810547 78.505859 C 38.372337 78.746521 38.943205 78.971856 39.521484 79.179688 C 39.651873 79.226555 39.784824 79.267338 39.916016 79.3125 C 40.376988 79.471165 40.841998 79.618622 41.3125 79.755859 C 41.4885 79.807206 41.664518 79.857959 41.841797 79.90625 C 42.372229 80.050717 42.907889 80.182245 43.449219 80.298828 C 43.525791 80.315324 43.600953 80.335634 43.677734 80.351562 C 44.292332 80.479025 44.91566 80.585324 45.542969 80.675781 C 45.71015 80.699886 45.878844 80.718812 46.046875 80.740234 C 46.523107 80.800961 47.001661 80.849827 47.484375 80.888672 C 47.680166 80.904432 47.875465 80.921493 48.072266 80.933594 C 48.64576 80.968836 49.2232 80.990532 49.804688 80.994141 A 1.0001 1.0001 0 0 0 50.195312 80.994141 C 50.769494 80.990577 51.339858 80.969959 51.90625 80.935547 C 52.101163 80.923697 52.294358 80.906065 52.488281 80.890625 C 52.949846 80.853891 53.407621 80.808703 53.863281 80.751953 C 54.053609 80.728244 54.244354 80.706835 54.433594 80.679688 C 55.042739 80.592325 55.648899 80.49141 56.246094 80.369141 C 56.315705 80.354881 56.383684 80.336992 56.453125 80.322266 C 56.997808 80.206821 57.536588 80.075297 58.070312 79.931641 C 58.239249 79.886142 58.406437 79.837334 58.574219 79.789062 C 59.040667 79.654948 59.501824 79.510626 59.958984 79.355469 C 60.089832 79.311034 60.221507 79.268786 60.351562 79.222656 C 60.945137 79.01224 61.53303 78.787911 62.109375 78.542969 C 62.131149 78.533709 62.152079 78.52298 62.173828 78.513672 C 62.71523 78.282108 63.246439 78.032469 63.771484 77.771484 C 63.902753 77.706192 64.031905 77.637405 64.162109 77.570312 C 64.614596 77.337303 65.060793 77.094131 65.5 76.839844 C 65.600227 76.78178 65.701268 76.725167 65.800781 76.666016 C 66.873537 76.028779 67.90242 75.328213 68.886719 74.570312 C 68.975705 74.501754 69.064126 74.432781 69.152344 74.363281 C 69.589626 74.018985 70.017693 73.663738 70.435547 73.296875 C 70.484475 73.253892 70.535329 73.213207 70.583984 73.169922 C 71.539922 72.319982 72.440608 71.410033 73.285156 70.449219 C 73.327207 70.401351 73.368396 70.352816 73.410156 70.304688 C 73.822208 69.830079 74.222444 69.344933 74.605469 68.845703 C 74.611725 68.837545 74.616799 68.828477 74.623047 68.820312 C 75.408713 67.794185 76.128581 66.717079 76.783203 65.595703 C 76.79725 65.571633 76.814141 65.549501 76.828125 65.525391 A 0.50005 0.50005 0 0 0 76.853516 65.476562 C 79.485989 60.920545 81 55.637928 81 50 C 81 40.904382 77.079076 32.716819 70.835938 27.046875 A 0.50005 0.50005 0 1 0 70.164062 27.787109 C 76.206924 33.275165 80 41.191618 80 50 C 80 55.269082 78.63921 60.217153 76.255859 64.519531 L 60.8125 52.109375 A 0.50005 0.50005 0 0 0 60.5 52 L 50.169922 52 A 1.0001 1.0001 0 0 0 49.984375 51.984375 A 1.0001 1.0001 0 0 0 49.830078 52 L 38.5 52 A 0.50005 0.50005 0 0 0 38.183594 52.113281 L 23.501953 64.072266 C 21.269491 59.875423 20 55.087432 20 50 C 20 33.425209 33.425209 20 50 20 C 53.630741 20 57.108062 20.645941 60.328125 21.826172 A 0.50018397 0.50018397 0 1 0 60.671875 20.886719 C 57.343938 19.66695 53.749259 19 50 19 z M 63.480469 22.140625 A 0.50005 0.50005 0 0 0 63.277344 23.091797 C 63.947092 23.423229 64.604492 23.779343 65.246094 24.158203 A 0.50005 0.50005 0 1 0 65.753906 23.296875 C 65.091508 22.905735 64.414908 22.53788 63.722656 22.195312 A 0.50005 0.50005 0 0 0 63.480469 22.140625 z M 67.507812 24.511719 A 0.50005 0.50005 0 0 0 67.457031 24.513672 A 0.50005 0.50005 0 0 0 67.212891 25.425781 C 67.545583 25.65906 67.873213 25.899999 68.195312 26.146484 A 0.50080937 0.50080937 0 1 0 68.804688 25.351562 C 68.470787 25.096048 68.130417 24.848143 67.787109 24.607422 A 0.50005 0.50005 0 0 0 67.507812 24.511719 z M 66.990234 29.986328 A 1.0001 1.0001 0 0 0 66.292969 30.292969 L 64 32.585938 L 61.707031 30.292969 A 1.0001 1.0001 0 0 0 60.990234 29.990234 A 1.0001 1.0001 0 0 0 60.292969 31.707031 L 62.585938 34 L 60.292969 36.292969 A 1.0001 1.0001 0 1 0 61.707031 37.707031 L 64 35.414062 L 66.292969 37.707031 A 1.0001 1.0001 0 1 0 67.707031 36.292969 L 65.414062 34 L 67.707031 31.707031 A 1.0001 1.0001 0 0 0 66.990234 29.986328 z M 42.5 30 C 41.375 30 40.468589 30.439878 39.876953 31.105469 C 39.285317 31.77106 39 32.638889 39 33.5 C 39 34.249131 39.230082 34.995466 39.675781 35.617188 L 33.580078 41.712891 C 33.020928 41.303013 32.350084 41 31.5 41 C 30.375 41 29.468589 41.439878 28.876953 42.105469 C 28.285317 42.77106 28 43.638889 28 44.5 C 28 45.361111 28.285317 46.22894 28.876953 46.894531 C 29.468589 47.560122 30.375 48 31.5 48 C 32.625 48 33.531411 47.560122 34.123047 46.894531 C 34.714683 46.22894 35 45.361111 35 44.5 C 35 43.764715 34.680943 43.070101 34.251953 42.455078 L 40.369141 36.337891 C 40.927948 36.747299 41.650513 37 42.5 37 C 43.350084 37 44.020928 36.696987 44.580078 36.287109 L 50.675781 42.382812 C 50.230082 43.004534 50 43.750869 50 44.5 C 50 45.361111 50.285317 46.22894 50.876953 46.894531 C 51.468589 47.560122 52.375 48 53.5 48 C 54.625 48 55.531411 47.560122 56.123047 46.894531 C 56.714683 46.22894 57 45.361111 57 44.5 C 57 43.750869 56.769918 43.004534 56.324219 42.382812 L 58.853516 39.853516 A 0.50005 0.50005 0 0 0 58.490234 38.996094 A 0.50005 0.50005 0 0 0 58.146484 39.146484 L 55.630859 41.662109 C 55.072052 41.252701 54.349487 41 53.5 41 C 52.650513 41 51.927948 41.252701 51.369141 41.662109 L 45.251953 35.544922 C 45.680943 34.929899 46 34.235285 46 33.5 C 46 32.638889 45.714683 31.77106 45.123047 31.105469 C 44.531411 30.439878 43.625 30 42.5 30 z M 42.5 31 C 43.375 31 43.96859 31.310122 44.376953 31.769531 C 44.785317 32.22894 45 32.861111 45 33.5 C 45 34.138889 44.785317 34.77106 44.376953 35.230469 C 43.96859 35.689878 43.375 36 42.5 36 C 41.625 36 41.03141 35.689878 40.623047 35.230469 C 40.214683 34.77106 40 34.138889 40 33.5 C 40 32.861111 40.214683 32.22894 40.623047 31.769531 C 41.03141 31.310122 41.625 31 42.5 31 z M 31.5 42 C 32.375 42 32.96859 42.310122 33.376953 42.769531 C 33.785317 43.22894 34 43.861111 34 44.5 C 34 45.138889 33.785317 45.77106 33.376953 46.230469 C 32.96859 46.689878 32.375 47 31.5 47 C 30.625 47 30.03141 46.689878 29.623047 46.230469 C 29.214683 45.77106 29 45.138889 29 44.5 C 29 43.861111 29.214683 43.22894 29.623047 42.769531 C 30.03141 42.310122 30.625 42 31.5 42 z M 53.5 42 C 54.225926 42 54.751063 42.219623 55.144531 42.554688 A 0.50005 0.50005 0 0 0 55.4375 42.853516 C 55.80242 43.304964 56 43.896919 56 44.5 C 56 45.138889 55.785317 45.77106 55.376953 46.230469 C 54.96859 46.689878 54.375 47 53.5 47 C 52.625 47 52.03141 46.689878 51.623047 46.230469 C 51.214683 45.77106 51 45.138889 51 44.5 C 51 43.861111 51.214683 43.22894 51.623047 42.769531 C 52.03141 42.310122 52.625 42 53.5 42 z M 38.677734 53 L 49 53 L 49 56 A 1.0001 1.0001 0 1 0 51 56 L 51 53 L 60.324219 53 L 75.705078 65.361328 C 71.148349 72.966114 63.355715 78.408201 54.207031 79.701172 C 54.055375 79.722443 53.902376 79.738816 53.75 79.757812 C 53.285007 79.816215 52.817244 79.863666 52.345703 79.900391 C 52.17969 79.913229 52.014418 79.927372 51.847656 79.9375 C 51.567205 79.95465 51.28255 79.957452 51 79.966797 L 51 76.998047 A 1.0001 1.0001 0 0 0 49.984375 75.984375 A 1.0001 1.0001 0 0 0 49 76.998047 L 49 79.966797 C 48.711526 79.957283 48.421084 79.955124 48.134766 79.9375 C 47.96473 79.927074 47.796209 79.911681 47.626953 79.898438 C 47.132533 79.859601 46.641585 79.808676 46.154297 79.746094 C 46.02353 79.729365 45.891952 79.715671 45.761719 79.697266 C 44.505339 79.518991 43.274912 79.264859 42.074219 78.935547 C 41.99639 78.914293 41.919371 78.891004 41.841797 78.869141 C 34.244138 76.718551 27.878536 71.644144 24.015625 64.943359 L 38.677734 53 z M 49.984375 59.986328 A 1.0001 1.0001 0 0 0 49 61 L 49 64 A 1.0001 1.0001 0 1 0 51 64 L 51 61 A 1.0001 1.0001 0 0 0 49.984375 59.986328 z M 49.984375 67.984375 A 1.0001 1.0001 0 0 0 49 68.998047 L 49 71.998047 A 1.0001 1.0001 0 1 0 51 71.998047 L 51 68.998047 A 1.0001 1.0001 0 0 0 49.984375 67.984375 z"/></svg>