<svg fill="#000000" xmlns="http://www.w3.org/2000/svg"  viewBox="0 0 100 100" width="200px" height="200px"><path d="M 26 14 C 24.35503 14 23 15.35503 23 17 L 23 83 C 23 84.64497 24.35503 86 26 86 L 72 86 C 74.749516 86 77 83.749516 77 81 L 77 19 C 77 16.250484 74.749516 14 72 14 L 26 14 z M 26 16 L 72 16 C 73.668484 16 75 17.331516 75 19 L 75 81 C 75 82.668484 73.668484 84 72 84 L 32 84 L 32 31.5625 A 0.50005 0.50005 0 0 0 31.492188 31.056641 A 0.50005 0.50005 0 0 0 31 31.5625 L 31 84 L 26 84 C 25.43497 84 25 83.56503 25 83 L 25 17 C 25 16.43497 25.43497 16 26 16 z M 31.492188 19.992188 A 0.50005 0.50005 0 0 0 31 20.5 L 31 21.5 A 0.50005 0.50005 0 1 0 32 21.5 L 32 20.5 A 0.50005 0.50005 0 0 0 31.492188 19.992188 z M 31.492188 23.992188 A 0.50005 0.50005 0 0 0 31 24.5 L 31 28.5 A 0.50005 0.50005 0 1 0 32 28.5 L 32 24.5 A 0.50005 0.50005 0 0 0 31.492188 23.992188 z M 52.492188 27.992188 A 0.50005 0.50005 0 0 0 52.386719 28.005859 C 51.674646 28.011383 50.979167 28.080664 50.294922 28.185547 C 50.056348 28.222125 49.814707 28.246837 49.580078 28.294922 C 49.479377 28.315553 49.383135 28.348383 49.283203 28.371094 C 48.920709 28.4535 48.558712 28.539372 48.207031 28.648438 C 48.039919 28.700239 47.88127 28.768544 47.716797 28.826172 C 47.434861 28.924987 47.15067 29.019292 46.876953 29.134766 C 46.704831 29.207365 46.541714 29.296018 46.373047 29.375 C 46.120477 29.49331 45.865502 29.60606 45.621094 29.738281 C 45.432719 29.84013 45.255517 29.95853 45.072266 30.068359 C 44.855885 30.198123 44.634667 30.320376 44.425781 30.460938 C 44.218339 30.600429 44.023884 30.756514 43.824219 30.90625 C 43.657785 31.031167 43.48501 31.147478 43.324219 31.279297 C 43.099312 31.4635 42.889134 31.664181 42.675781 31.861328 C 42.558065 31.970217 42.432416 32.070889 42.318359 32.183594 A 0.50005 0.50005 0 0 0 42.298828 32.205078 C 39.646504 34.833427 38 38.475063 38 42.5 C 38 46.524937 39.646504 50.166573 42.298828 52.794922 A 0.50005 0.50005 0 0 0 42.318359 52.816406 C 42.432416 52.929111 42.558065 53.029783 42.675781 53.138672 C 42.889134 53.335819 43.099312 53.5365 43.324219 53.720703 C 43.48501 53.852522 43.657785 53.968833 43.824219 54.09375 C 44.023884 54.243486 44.218339 54.399571 44.425781 54.539062 C 44.634667 54.679624 44.855885 54.801877 45.072266 54.931641 C 45.255517 55.04147 45.432719 55.15987 45.621094 55.261719 C 45.865502 55.39394 46.120477 55.50669 46.373047 55.625 C 46.541714 55.703982 46.704831 55.792635 46.876953 55.865234 C 47.15067 55.980708 47.434861 56.075013 47.716797 56.173828 C 47.88127 56.231456 48.039919 56.299761 48.207031 56.351562 C 48.558712 56.460628 48.920709 56.5465 49.283203 56.628906 C 49.383135 56.651617 49.479377 56.684447 49.580078 56.705078 C 49.814707 56.753163 50.056348 56.777875 50.294922 56.814453 C 50.540519 56.852099 50.781776 56.900644 51.03125 56.925781 C 51.478156 56.970828 51.932821 56.990711 52.390625 56.994141 C 52.390625 56.994141 52.392578 56.994141 52.392578 56.994141 A 0.50005 0.50005 0 0 0 52.613281 56.994141 C 53.069745 56.990599 53.523124 56.970699 53.96875 56.925781 C 54.218224 56.900644 54.459481 56.852099 54.705078 56.814453 C 54.941756 56.778166 55.181266 56.752691 55.414062 56.705078 C 55.415941 56.704694 55.418043 56.705463 55.419922 56.705078 C 55.885897 56.609582 56.344335 56.490696 56.792969 56.351562 C 56.960081 56.299761 57.11873 56.231456 57.283203 56.173828 C 57.565139 56.075013 57.84933 55.980708 58.123047 55.865234 C 58.295169 55.792635 58.458286 55.703982 58.626953 55.625 C 58.879523 55.50669 59.134498 55.39394 59.378906 55.261719 C 59.567281 55.15987 59.744483 55.04147 59.927734 54.931641 C 60.144115 54.801877 60.365333 54.679624 60.574219 54.539062 C 60.781661 54.399571 60.976116 54.243486 61.175781 54.09375 C 61.342215 53.968833 61.51499 53.852522 61.675781 53.720703 C 61.900688 53.5365 62.110866 53.335819 62.324219 53.138672 C 62.441935 53.029783 62.567584 52.929111 62.681641 52.816406 A 0.50005 0.50005 0 0 0 62.701172 52.794922 C 65.353496 50.166573 67 46.524937 67 42.5 C 67 38.47308 65.35189 34.829814 62.697266 32.201172 A 0.50005 0.50005 0 0 0 62.681641 32.183594 C 62.567584 32.070889 62.441935 31.970217 62.324219 31.861328 C 62.110866 31.664181 61.900688 31.4635 61.675781 31.279297 C 61.51499 31.147478 61.342215 31.031167 61.175781 30.90625 C 60.976116 30.756514 60.781661 30.600429 60.574219 30.460938 C 60.365333 30.320376 60.144115 30.198123 59.927734 30.068359 C 59.744483 29.95853 59.567281 29.84013 59.378906 29.738281 C 59.134498 29.60606 58.879523 29.49331 58.626953 29.375 C 58.458286 29.296018 58.295169 29.207365 58.123047 29.134766 C 57.84933 29.019292 57.565139 28.924987 57.283203 28.826172 C 57.11873 28.768544 56.960081 28.700239 56.792969 28.648438 C 56.344335 28.509304 55.885897 28.390418 55.419922 28.294922 C 55.418043 28.294537 55.415941 28.295306 55.414062 28.294922 C 55.181267 28.247309 54.941756 28.221834 54.705078 28.185547 C 54.020833 28.080664 53.325354 28.011383 52.613281 28.005859 A 0.50005 0.50005 0 0 0 52.492188 27.992188 z M 51.037109 29.087891 C 49.803666 30.239425 47.865591 32.384695 46.515625 35.423828 C 45.243945 34.687323 44.170717 33.741841 43.402344 32.642578 C 45.471685 30.73095 48.098072 29.41998 51.037109 29.087891 z M 53.962891 29.087891 C 56.901928 29.41998 59.528315 30.73095 61.597656 32.642578 C 60.829283 33.741841 59.756055 34.687323 58.484375 35.423828 C 57.134409 32.384695 55.196334 30.239425 53.962891 29.087891 z M 52 29.558594 L 52 36.972656 C 50.310011 36.906217 48.738788 36.517517 47.365234 35.875 C 48.792887 32.577814 50.962708 30.447972 52 29.558594 z M 53 29.558594 C 54.037292 30.447972 56.207113 32.577814 57.634766 35.875 C 56.261212 36.517517 54.689989 36.906217 53 36.972656 L 53 29.558594 z M 42.601562 33.335938 C 43.482348 34.565854 44.691509 35.597472 46.113281 36.384766 C 45.495561 38.027713 45.083613 39.908803 45.023438 42 L 39.025391 42 C 39.147932 38.655332 40.478283 35.6285 42.601562 33.335938 z M 62.398438 33.335938 C 64.521717 35.6285 65.852068 38.655332 65.974609 42 L 59.976562 42 C 59.916387 39.908803 59.504439 38.027713 58.886719 36.384766 C 60.308491 35.597472 61.517652 34.565854 62.398438 33.335938 z M 46.996094 36.822266 C 48.497239 37.50055 50.192469 37.906265 52 37.970703 L 52 42 L 46.021484 42 C 46.078402 40.064044 46.44758 38.334424 46.996094 36.822266 z M 58.003906 36.822266 C 58.55242 38.334424 58.921598 40.064044 58.978516 42 L 53 42 L 53 37.970703 C 54.807531 37.906265 56.502762 37.50055 58.003906 36.822266 z M 39.025391 43 L 45.023438 43 C 45.083613 45.091197 45.495561 46.972287 46.113281 48.615234 C 44.691509 49.402528 43.482348 50.434146 42.601562 51.664062 C 40.478283 49.3715 39.147932 46.344668 39.025391 43 z M 46.021484 43 L 52 43 L 52 47.029297 C 50.192469 47.093735 48.497238 47.49945 46.996094 48.177734 C 46.44758 46.665576 46.078402 44.935956 46.021484 43 z M 53 43 L 58.978516 43 C 58.921598 44.935956 58.55242 46.665576 58.003906 48.177734 C 56.502761 47.49945 54.807531 47.093735 53 47.029297 L 53 43 z M 59.976562 43 L 65.974609 43 C 65.852068 46.344668 64.521717 49.3715 62.398438 51.664062 C 61.517652 50.434146 60.308491 49.402528 58.886719 48.615234 C 59.504439 46.972287 59.916387 45.091197 59.976562 43 z M 52 48.027344 L 52 55.441406 C 50.962708 54.552028 48.792887 52.422186 47.365234 49.125 C 48.738788 48.482483 50.310011 48.093783 52 48.027344 z M 53 48.027344 C 54.689989 48.093783 56.261212 48.482483 57.634766 49.125 C 56.207113 52.422186 54.037292 54.552028 53 55.441406 L 53 48.027344 z M 46.515625 49.576172 C 47.865591 52.615305 49.803666 54.760575 51.037109 55.912109 C 48.098072 55.58002 45.471685 54.26905 43.402344 52.357422 C 44.170717 51.258159 45.243945 50.312677 46.515625 49.576172 z M 58.484375 49.576172 C 59.756055 50.312677 60.829283 51.258159 61.597656 52.357422 C 59.528315 54.26905 56.901928 55.58002 53.962891 55.912109 C 55.196334 54.760575 57.134409 52.615305 58.484375 49.576172 z M 36.5 68 A 0.50005 0.50005 0 0 0 36 68.5 L 36 76.5 A 0.50005 0.50005 0 0 0 36.5 77 L 68.5 77 A 0.50005 0.50005 0 0 0 69 76.5 L 69 72.5 A 0.50005 0.50005 0 1 0 68 72.5 L 68 76 L 37 76 L 37 69 L 54.5 69 A 0.50005 0.50005 0 1 0 54.5 68 L 36.5 68 z M 58.5 68 A 0.50005 0.50005 0 1 0 58.5 69 L 61.5 69 A 0.50005 0.50005 0 1 0 61.5 68 L 58.5 68 z M 64.5 68 A 0.50005 0.50005 0 1 0 64.5 69 L 65.5 69 A 0.50005 0.50005 0 1 0 65.5 68 L 64.5 68 z"/></svg>