<svg fill="#000000" xmlns="http://www.w3.org/2000/svg"  viewBox="0 0 100 100" width="200px" height="200px"><path d="M 75.984375 11 C 70.271882 11 65.264523 14.01584 62.4375 18.527344 C 58.440208 16.90801 54.075691 16 49.5 16 C 30.457554 16 15 31.458561 15 50.5 C 15 69.541439 30.457554 85 49.5 85 C 68.542446 85 84 69.541439 84 50.5 C 84 48.823627 83.86752 47.180674 83.634766 45.572266 C 83.852061 45.283392 84.067132 45.007547 84.285156 44.708984 C 88.081781 39.509876 91.970703 32.931889 91.970703 26.958984 C 91.970703 18.156484 84.798992 11 75.984375 11 z M 75.984375 13 C 83.719758 13 89.970703 19.239485 89.970703 26.958984 C 89.970703 32.02708 86.365797 38.468155 82.669922 43.529297 C 82.318377 44.010704 82.002128 44.402271 81.664062 44.845703 L 81.505859 44.873047 C 81.514445 44.92224 81.520921 44.972226 81.529297 45.021484 C 78.91846 48.427186 76.75655 50.736351 75.984375 51.533203 C 75.098712 50.619198 72.430403 47.81501 69.300781 43.529297 C 65.604906 38.468155 62 32.02708 62 26.958984 C 62 19.239485 68.248992 13 75.984375 13 z M 76 15 C 69.388707 15 64 20.388707 64 27 C 64 33.611293 69.388707 39 76 39 C 82.435301 39 87.69821 33.891193 87.974609 27.521484 A 0.50046139 0.50046139 0 0 0 86.974609 27.478516 C 86.721009 33.322809 81.906699 38 76 38 C 69.931293 38 65 33.068707 65 27 C 65 20.931293 69.931293 16 76 16 C 77.527495 16 78.980075 16.313692 80.302734 16.878906 A 0.50047777 0.50047777 0 1 0 80.697266 15.958984 C 79.253925 15.342199 77.664505 15 76 15 z M 82.501953 17.019531 A 0.50005 0.50005 0 0 0 82.216797 17.935547 C 82.996265 18.472386 83.701 19.109072 84.320312 19.826172 A 0.50005 0.50005 0 1 0 85.076172 19.173828 C 84.403486 18.394928 83.635735 17.698489 82.783203 17.111328 A 0.50005 0.50005 0 0 0 82.501953 17.019531 z M 49.5 18 C 50.325906 18 51.26166 18.740088 52.179688 20.341797 C 53.097715 21.943506 53.954878 24.325587 54.671875 27.283203 C 54.927589 28.338023 55.059877 29.806714 55.279297 31 L 43.720703 31 C 43.940123 29.806714 44.072411 28.338023 44.328125 27.283203 C 45.045122 24.325587 45.902285 21.943506 46.820312 20.341797 C 47.73834 18.740088 48.674094 18 49.5 18 z M 76 18 C 71.042695 18 67 22.042695 67 27 C 67 31.957305 71.042695 36 76 36 C 80.957305 36 85 31.957305 85 27 C 85 22.042695 80.957305 18 76 18 z M 51.753906 18.087891 C 55.168641 18.323234 58.434851 19.086373 61.478516 20.294922 C 60.538767 22.325942 60 24.578076 60 26.958984 C 60 32.931889 63.888922 39.509876 67.685547 44.708984 C 71.482172 49.908093 75.277344 53.707031 75.277344 53.707031 A 1.0001 1.0001 0 0 0 76.693359 53.707031 C 76.693359 53.707031 79.041517 51.347453 81.884766 47.824219 C 81.958783 48.707049 82 49.598617 82 50.5 C 82 57.378055 79.862623 63.749801 76.222656 69 L 69.089844 69 C 71.064114 64.754629 72.377724 59.838644 72.824219 54.541016 A 0.50005 0.50005 0 1 0 71.828125 54.458984 C 71.375636 59.82773 69.9987 64.773427 67.964844 69 L 56.453125 69 C 57.33191 63.771778 57.948785 57.797506 57.974609 51 L 69.5 51 A 0.50005 0.50005 0 1 0 69.5 50 L 57.974609 50 C 57.948785 43.202494 57.33191 37.228222 56.453125 32 L 58.5 32 A 0.50005 0.50005 0 1 0 58.5 31 L 56.289062 31 C 56.057294 29.722854 55.916158 28.175394 55.642578 27.046875 C 54.911861 24.032666 54.04306 21.581823 53.046875 19.84375 C 52.645343 19.143186 52.214004 18.551978 51.753906 18.087891 z M 47.148438 18.179688 C 46.724351 18.628645 46.326694 19.191973 45.953125 19.84375 C 44.95694 21.581823 44.088139 24.032666 43.357422 27.046875 C 43.083842 28.175394 42.942707 29.722854 42.710938 31 L 31.507812 31 C 32.162224 29.742652 32.876207 28.556376 33.646484 27.451172 C 37.212516 22.334581 41.923389 18.964694 47.148438 18.179688 z M 41.492188 18.996094 C 38.188777 20.700354 35.235896 23.421401 32.826172 26.878906 C 31.936968 28.154748 31.124514 29.536255 30.388672 31 L 23.492188 31 C 27.879636 25.15563 34.192064 20.843198 41.492188 18.996094 z M 76 19 C 80.414695 19 84 22.585305 84 27 C 84 31.414695 80.414695 35 76 35 C 71.585305 35 68 31.414695 68 27 C 68 22.585305 71.585305 19 76 19 z M 86.566406 21.994141 A 0.50005 0.50005 0 0 0 86.117188 22.695312 C 86.250278 23.007455 86.370474 23.327517 86.474609 23.652344 A 0.50032041 0.50032041 0 1 0 87.427734 23.347656 C 87.31387 22.992484 87.182018 22.644544 87.037109 22.304688 A 0.50005 0.50005 0 0 0 86.566406 21.994141 z M 22.777344 32 L 29.902344 32 C 27.494479 37.176713 26.076099 43.355267 26.007812 50 L 17.013672 50 C 17.114725 43.313839 19.226109 37.122214 22.777344 32 z M 31.009766 32 L 42.546875 32 C 41.66809 37.228222 41.051215 43.202494 41.025391 50 L 27.007812 50 C 27.078234 43.312761 28.549559 37.117776 31.009766 32 z M 43.558594 32 L 55.441406 32 C 56.325181 37.192365 56.948331 43.177903 56.974609 50 L 42.025391 50 C 42.051671 43.177903 42.674819 37.192365 43.558594 32 z M 17.013672 51 L 26.007812 51 C 26.076099 57.644733 27.494479 63.823287 29.902344 69 L 22.777344 69 C 19.226109 63.877786 17.114725 57.686161 17.013672 51 z M 27.007812 51 L 41.025391 51 C 41.051211 57.797506 41.66809 63.771778 42.546875 69 L 31.009766 69 C 28.549559 63.882224 27.078234 57.687239 27.007812 51 z M 42.025391 51 L 56.974609 51 C 56.948329 57.822097 56.325181 63.807635 55.441406 69 L 43.558594 69 C 42.674819 63.807635 42.051669 57.822097 42.025391 51 z M 23.492188 70 L 30.388672 70 C 31.124514 71.463745 31.936968 72.845252 32.826172 74.121094 C 35.235896 77.578599 38.188777 80.299646 41.492188 82.003906 C 34.192064 80.156802 27.879636 75.84437 23.492188 70 z M 31.507812 70 L 42.710938 70 C 42.942706 71.277146 43.083842 72.824606 43.357422 73.953125 C 44.088139 76.967334 44.95694 79.418177 45.953125 81.15625 C 46.326694 81.808027 46.724351 82.371355 47.148438 82.820312 C 41.923389 82.035306 37.212516 78.665419 33.646484 73.548828 C 32.876207 72.443624 32.162224 71.257348 31.507812 70 z M 43.720703 70 L 55.279297 70 C 55.059877 71.193286 54.927589 72.661977 54.671875 73.716797 C 53.954878 76.674413 53.097715 79.056494 52.179688 80.658203 C 51.26166 82.259912 50.325906 83 49.5 83 C 48.674094 83 47.73834 82.259912 46.820312 80.658203 C 45.902285 79.056494 45.045122 76.674413 44.328125 73.716797 C 44.072411 72.661977 43.940123 71.193286 43.720703 70 z M 56.289062 70 L 67.466797 70 C 66.55634 71.747492 65.540974 73.372016 64.412109 74.818359 C 60.975335 79.221685 56.630165 82.097679 51.853516 82.816406 C 52.276549 82.367938 52.67413 81.806589 53.046875 81.15625 C 54.04306 79.418177 54.911861 76.967334 55.642578 73.953125 C 55.916158 72.824606 56.057293 71.277146 56.289062 70 z M 68.609375 70 L 75.507812 70 C 71.115322 75.851086 64.793206 80.166218 57.482422 82.009766 C 60.364216 80.52713 62.980155 78.276742 65.199219 75.433594 C 66.470396 73.804913 67.6137 71.981554 68.609375 70 z"/></svg>